<?xml version="1.0" standalone="no"?>
<!DOCTYPE svg PUBLIC "-//W3C//DTD SVG 20010904//EN"
 "http://www.w3.org/TR/2001/REC-SVG-20010904/DTD/svg10.dtd">
<svg version="1.0" xmlns="http://www.w3.org/2000/svg"
 width="290.000000pt" height="290.000000pt" viewBox="0 0 290.000000 290.000000"
 preserveAspectRatio="xMidYMid meet">
<metadata>
Created by potrace 1.14, written by Peter Selinger 2001-2017
</metadata>
<g transform="translate(0.000000,290.000000) scale(0.100000,-0.100000)"
fill="#000000" stroke="none">
<path d="M1275 2890 c-11 -5 -38 -9 -59 -9 -22 -1 -53 -5 -70 -10 -51 -16
-150 -45 -161 -47 -5 -1 -26 -9 -45 -17 -19 -8 -39 -16 -45 -18 -9 -3 -52 -25
-186 -96 -15 -7 -32 -20 -39 -28 -7 -8 -17 -15 -22 -15 -5 0 -15 -6 -22 -12
-7 -7 -32 -29 -57 -48 -55 -44 -166 -156 -199 -200 -14 -18 -30 -38 -35 -44
-39 -42 -164 -266 -165 -293 0 -7 -4 -13 -10 -13 -5 0 -9 -3 -8 -7 1 -5 -6
-31 -15 -59 -10 -28 -19 -59 -22 -70 -2 -10 -8 -34 -14 -51 -5 -18 -8 -33 -5
-33 2 0 -2 -12 -9 -27 -8 -16 -13 -41 -12 -58 0 -16 -3 -43 -8 -60 -14 -44
-17 -244 -5 -290 6 -22 12 -60 13 -85 1 -25 7 -55 13 -66 6 -12 9 -23 7 -26
-2 -2 1 -22 7 -44 6 -21 12 -41 13 -44 16 -60 27 -90 35 -95 6 -4 7 -11 4 -17
-4 -6 -1 -13 5 -17 16 -10 21 -78 9 -115 -14 -42 -17 -195 -5 -226 45 -115 88
-166 176 -206 43 -20 68 -25 130 -24 42 1 84 1 94 1 15 0 71 -32 87 -51 10
-11 86 -57 118 -71 17 -7 32 -17 32 -21 0 -5 9 -8 20 -8 11 0 20 -4 20 -10 0
-5 6 -10 14 -10 8 0 34 -10 58 -21 57 -29 71 -34 146 -55 43 -12 77 -30 105
-56 66 -59 175 -108 258 -115 97 -9 232 39 314 112 35 32 69 52 100 59 82 21
70 16 200 77 163 76 263 146 385 269 73 72 165 187 209 260 37 61 111 217 111
233 0 8 4 17 10 19 5 2 11 15 12 31 1 15 6 27 10 27 4 0 8 11 8 25 0 14 4 33
9 43 5 9 14 44 21 77 6 33 16 74 22 90 13 35 19 315 8 330 -5 6 -8 12 -9 15 0
3 -2 12 -5 20 -2 8 -7 31 -9 50 -8 58 -24 121 -45 180 -3 8 -6 20 -7 26 0 6
-6 22 -12 35 -12 24 -43 100 -45 109 -1 3 -14 28 -29 57 -42 78 -53 97 -59
103 -3 3 -23 32 -45 65 -80 119 -382 395 -434 395 -6 0 -11 5 -11 11 0 6 -7 9
-15 5 -8 -3 -15 -1 -15 5 0 8 -35 28 -60 34 -3 0 -21 8 -40 17 -19 10 -42 18
-50 20 -8 2 -18 6 -21 11 -3 4 -14 9 -25 11 -10 2 -30 8 -44 14 -14 5 -31 7
-37 5 -7 -3 -13 0 -13 6 0 6 -15 11 -33 11 -18 0 -37 4 -43 9 -19 19 -422 38
-459 21z"/>
</g>
</svg>
